<svg xmlns="http://www.w3.org/2000/svg" viewBox="0 0 512 512">
  <defs>
    <linearGradient id="g" x1="0" y1="0" x2="0" y2="1">
      <stop offset="0" stop-color="#23976f"/>
      <stop offset="1" stop-color="#125640"/>
    </linearGradient>
  </defs>
  <rect width="512" height="512" rx="110" fill="url(#g)"/>
  <!-- 건물 본체 -->
  <rect x="156" y="120" width="200" height="260" rx="10" fill="#ffffff"/>
  <!-- 창문 3x3 -->
  <rect x="178" y="148" width="44" height="44" rx="6" fill="#125640"/>
  <rect x="234" y="148" width="44" height="44" rx="6" fill="#125640"/>
  <rect x="290" y="148" width="44" height="44" rx="6" fill="#125640"/>
  <rect x="178" y="208" width="44" height="44" rx="6" fill="#125640"/>
  <rect x="234" y="208" width="44" height="44" rx="6" fill="#125640"/>
  <rect x="290" y="208" width="44" height="44" rx="6" fill="#125640"/>
  <rect x="178" y="268" width="44" height="44" rx="6" fill="#125640"/>
  <rect x="290" y="268" width="44" height="44" rx="6" fill="#125640"/>
  <!-- 문 -->
  <rect x="218" y="310" width="76" height="70" rx="8" fill="#125640"/>
  <!-- 지면 -->
  <rect x="110" y="376" width="292" height="24" rx="8" fill="#ffffff"/>
</svg>
